<svg width="40" height="256" viewBox="0 0 40 256" fill="none" xmlns="http://www.w3.org/2000/svg">
<rect x="0.5" y="0.5" width="39" height="56" rx="19.5" fill="url(#paint0_radial)" stroke="black"/>
<rect x="4" width="31" height="57" rx="15.5" fill="url(#paint1_radial)"/>
<rect x="39.5" y="255.5" width="39" height="56" rx="19.5" transform="rotate(180 39.5 255.5)" fill="url(#paint2_radial)" stroke="black"/>
<rect x="36" y="256" width="31" height="57" rx="15.5" transform="rotate(180 36 256)" fill="url(#paint3_radial)"/>
<rect x="0.5" y="28.5" width="39" height="199" fill="#D9D9D9" stroke="black"/>
<rect x="18" y="28" width="5" height="200" fill="#FC9090"/>
<rect x="16" y="28" width="9" height="1" fill="black"/>
<rect x="16" y="227" width="9" height="1" fill="black"/>
<rect x="29" y="128" width="10" height="1" fill="black"/>
<rect x="32" y="177" width="7" height="1" fill="black"/>
<rect x="35" y="153" width="4" height="1" fill="black"/>
<rect x="35" y="52" width="4" height="1" fill="black"/>
<rect x="35" y="52" width="4" height="1" fill="black"/>
<rect x="35" y="202" width="4" height="1" fill="black"/>
<rect x="35" y="103" width="4" height="1" fill="black"/>
<rect x="32" y="77" width="7" height="1" fill="black"/>
<rect x="36" y="222" width="3" height="1" fill="black"/>
<rect x="36" y="217" width="3" height="1" fill="black"/>
<rect x="36" y="212" width="3" height="1" fill="black"/>
<rect x="36" y="207" width="3" height="1" fill="black"/>
<rect x="36" y="197" width="3" height="1" fill="black"/>
<rect x="36" y="192" width="3" height="1" fill="black"/>
<rect x="36" y="187" width="3" height="1" fill="black"/>
<rect x="36" y="182" width="3" height="1" fill="black"/>
<rect x="36" y="172" width="3" height="1" fill="black"/>
<rect x="36" y="167" width="3" height="1" fill="black"/>
<rect x="36" y="162" width="3" height="1" fill="black"/>
<rect x="36" y="157" width="3" height="1" fill="black"/>
<rect x="36" y="147" width="3" height="1" fill="black"/>
<rect x="36" y="142" width="3" height="1" fill="black"/>
<rect x="36" y="137" width="3" height="1" fill="black"/>
<rect x="36" y="132" width="3" height="1" fill="black"/>
<rect x="36" y="122" width="3" height="1" fill="black"/>
<rect x="36" y="117" width="3" height="1" fill="black"/>
<rect x="36" y="112" width="3" height="1" fill="black"/>
<rect x="36" y="107" width="3" height="1" fill="black"/>
<rect x="36" y="97" width="3" height="1" fill="black"/>
<rect x="36" y="92" width="3" height="1" fill="black"/>
<rect x="36" y="87" width="3" height="1" fill="black"/>
<rect x="36" y="82" width="3" height="1" fill="black"/>
<rect x="36" y="72" width="3" height="1" fill="black"/>
<rect x="36" y="67" width="3" height="1" fill="black"/>
<rect x="36" y="62" width="3" height="1" fill="black"/>
<rect x="36" y="57" width="3" height="1" fill="black"/>
<rect x="36" y="47" width="3" height="1" fill="black"/>
<rect x="36" y="42" width="3" height="1" fill="black"/>
<rect x="36" y="37" width="3" height="1" fill="black"/>
<rect x="36" y="32" width="3" height="1" fill="black"/>
<defs>
<radialGradient id="paint0_radial" cx="0" cy="0" r="1" gradientUnits="userSpaceOnUse" gradientTransform="translate(20 28.5) rotate(90) scale(44.5 31.2281)">
<stop offset="0.788995" stop-color="#7E7C7C"/>
<stop offset="1" stop-color="#D2D2D2" stop-opacity="0"/>
</radialGradient>
<radialGradient id="paint1_radial" cx="0" cy="0" r="1" gradientUnits="userSpaceOnUse" gradientTransform="translate(20 19) rotate(90) scale(23 12.5088)">
<stop stop-color="#F3F3F3"/>
<stop offset="1" stop-color="#F3F3F3" stop-opacity="0"/>
</radialGradient>
<radialGradient id="paint2_radial" cx="0" cy="0" r="1" gradientUnits="userSpaceOnUse" gradientTransform="translate(60 284.5) rotate(90) scale(44.5 31.2281)">
<stop offset="0.788995" stop-color="#7E7C7C"/>
<stop offset="1" stop-color="#D2D2D2" stop-opacity="0"/>
</radialGradient>
<radialGradient id="paint3_radial" cx="0" cy="0" r="1" gradientUnits="userSpaceOnUse" gradientTransform="translate(52 275) rotate(90) scale(23 12.5088)">
<stop stop-color="#F3F3F3"/>
<stop offset="1" stop-color="#F3F3F3" stop-opacity="0"/>
</radialGradient>
</defs>
</svg>
